<?xml version="1.0" encoding="utf-8"?>
<!-- Generator: Adobe Illustrator 25.4.1, SVG Export Plug-In . SVG Version: 6.00 Build 0)  -->
<svg version="1.1" id="Layer_1" xmlns="http://www.w3.org/2000/svg" xmlns:xlink="http://www.w3.org/1999/xlink" x="0px" y="0px"
	 viewBox="0 0 764.9 198.3" style="enable-background:new 0 0 764.9 198.3;" xml:space="preserve">
<style type="text/css">
	.st0{fill:#1A2749;}
	.st1{fill:#A0C342;}
	.st2{fill:#545454;}
	.st3{fill:#B5D152;}
	.st4{fill:none;stroke:#545454;stroke-miterlimit:10;}
</style>
<g>
	<g>
		<path class="st1" d="M228.6,92.8C171.8,150,112.6,188.7,0,195.7c88.2,6.6,183,7.4,265.8-77c11.2,9.3,19.3,15.5,19.3,15.5l5.3-85.1
			l-76.1,33.2L228.6,92.8z"/>
		<path class="st1" d="M290.4,49.1l-76.1,33.2l14.3,10.4C171.8,150,112.6,188.7,0,195.7C91.7,205.8,250.3,153.9,290.4,49.1z"/>
		<path class="st0" d="M63.2,64l24-13.9v121.8c10.8-3.1,21-6.7,30.7-10.6V61.4L87.9,42.6L56.5,60.9v10.1l6.7,3.4V64z"/>
		<path class="st0" d="M105.2,24.2l30-16.5v145.7c13-6.4,25-13.6,36.5-21.5V21.1L135.9,0L98.8,20.9V33l6.4,4.1V24.2z"/>
		<path class="st0" d="M181.6,97l18.1-10.3v23.6c6.7-5.7,11.4-9.9,17.9-16.2l-17.7-12.3l-23.5,13.2v8.5l5.2,2.6V97z"/>
	</g>
	<g>
		<g>
			<path class="st0" d="M323.2,127.2h9.2c4.2,0,7.2,0.6,9.1,1.8c1.9,1.2,2.8,3.1,2.8,5.7c0,1.8-0.4,3.2-1.2,4.3
				c-0.8,1.1-1.9,1.8-3.3,2v0.2c1.9,0.4,3.2,1.2,4,2.3c0.8,1.1,1.2,2.7,1.2,4.6c0,2.7-1,4.8-2.9,6.3c-1.9,1.5-4.6,2.3-7.9,2.3h-11
				V127.2z M329.4,138.9h3.6c1.7,0,2.9-0.3,3.7-0.8c0.8-0.5,1.1-1.4,1.1-2.6c0-1.1-0.4-1.9-1.2-2.4c-0.8-0.5-2.1-0.7-3.9-0.7h-3.3
				V138.9z M329.4,143.8v7.7h4.1c1.7,0,3-0.3,3.8-1c0.8-0.7,1.2-1.7,1.2-3c0-2.4-1.7-3.7-5.2-3.7H329.4z"/>
			<path class="st0" d="M374.9,127.2v19.1c0,2.2-0.5,4.1-1.5,5.7c-1,1.6-2.4,2.9-4.2,3.8c-1.8,0.9-4,1.3-6.5,1.3
				c-3.8,0-6.7-1-8.8-2.9s-3.1-4.6-3.1-8v-19h6.2v18.1c0,2.3,0.5,3.9,1.4,5c0.9,1.1,2.4,1.6,4.5,1.6c2,0,3.5-0.5,4.4-1.6
				c0.9-1.1,1.4-2.7,1.4-5v-18H374.9z"/>
			<path class="st0" d="M399.6,148.5c0,2.7-1,4.8-2.9,6.3c-1.9,1.5-4.6,2.3-8,2.3c-3.1,0-5.9-0.6-8.3-1.8v-5.8
				c2,0.9,3.7,1.5,5.1,1.9c1.4,0.4,2.6,0.5,3.8,0.5c1.4,0,2.4-0.3,3.2-0.8c0.7-0.5,1.1-1.3,1.1-2.3c0-0.6-0.2-1.1-0.5-1.5
				c-0.3-0.4-0.8-0.9-1.4-1.3c-0.6-0.4-1.9-1.1-3.8-2c-1.8-0.8-3.2-1.7-4.1-2.4c-0.9-0.8-1.6-1.7-2.2-2.7c-0.5-1-0.8-2.2-0.8-3.6
				c0-2.6,0.9-4.7,2.7-6.2c1.8-1.5,4.2-2.2,7.3-2.2c1.5,0,3,0.2,4.4,0.5c1.4,0.4,2.8,0.9,4.4,1.5l-2,4.9c-1.6-0.6-2.9-1.1-3.9-1.4
				c-1-0.3-2-0.4-3-0.4c-1.2,0-2.1,0.3-2.7,0.8c-0.6,0.6-0.9,1.3-0.9,2.2c0,0.6,0.1,1,0.4,1.4c0.3,0.4,0.7,0.8,1.2,1.2
				c0.6,0.4,1.9,1.1,4,2.1c2.8,1.3,4.6,2.6,5.7,4C399,145,399.6,146.6,399.6,148.5z"/>
			<path class="st0" d="M404.9,156.7v-29.5h6.3v29.5H404.9z"/>
			<path class="st0" d="M444.7,156.7h-7.9L424,134.4h-0.2c0.3,3.9,0.4,6.7,0.4,8.4v13.9h-5.6v-29.5h7.9l12.8,22.1h0.1
				c-0.2-3.8-0.3-6.5-0.3-8.1v-14h5.6V156.7z"/>
			<path class="st0" d="M469.1,156.7h-17v-29.5h17v5.1h-10.7v6.5h10v5.1h-10v7.6h10.7V156.7z"/>
			<path class="st0" d="M492.7,148.5c0,2.7-1,4.8-2.9,6.3c-1.9,1.5-4.6,2.3-8,2.3c-3.1,0-5.9-0.6-8.3-1.8v-5.8
				c2,0.9,3.7,1.5,5.1,1.9c1.4,0.4,2.6,0.5,3.8,0.5c1.4,0,2.4-0.3,3.2-0.8c0.7-0.5,1.1-1.3,1.1-2.3c0-0.6-0.2-1.1-0.5-1.5
				c-0.3-0.4-0.8-0.9-1.4-1.3c-0.6-0.4-1.9-1.1-3.8-2c-1.8-0.8-3.2-1.7-4.1-2.4c-0.9-0.8-1.6-1.7-2.2-2.7c-0.5-1-0.8-2.2-0.8-3.6
				c0-2.6,0.9-4.7,2.7-6.2c1.8-1.5,4.2-2.2,7.3-2.2c1.5,0,3,0.2,4.4,0.5c1.4,0.4,2.8,0.9,4.4,1.5l-2,4.9c-1.6-0.6-2.9-1.1-3.9-1.4
				c-1-0.3-2-0.4-3-0.4c-1.2,0-2.1,0.3-2.7,0.8c-0.6,0.6-0.9,1.3-0.9,2.2c0,0.6,0.1,1,0.4,1.4c0.3,0.4,0.7,0.8,1.2,1.2
				c0.6,0.4,1.9,1.1,4,2.1c2.8,1.3,4.6,2.6,5.7,4C492.2,145,492.7,146.6,492.7,148.5z"/>
			<path class="st0" d="M515.4,148.5c0,2.7-1,4.8-2.9,6.3c-1.9,1.5-4.6,2.3-8,2.3c-3.1,0-5.9-0.6-8.3-1.8v-5.8
				c2,0.9,3.7,1.5,5.1,1.9c1.4,0.4,2.6,0.5,3.8,0.5c1.4,0,2.4-0.3,3.2-0.8c0.7-0.5,1.1-1.3,1.1-2.3c0-0.6-0.2-1.1-0.5-1.5
				c-0.3-0.4-0.8-0.9-1.4-1.3c-0.6-0.4-1.9-1.1-3.8-2c-1.8-0.8-3.2-1.7-4.1-2.4c-0.9-0.8-1.6-1.7-2.2-2.7c-0.5-1-0.8-2.2-0.8-3.6
				c0-2.6,0.9-4.7,2.7-6.2c1.8-1.5,4.2-2.2,7.3-2.2c1.5,0,3,0.2,4.4,0.5c1.4,0.4,2.8,0.9,4.4,1.5l-2,4.9c-1.6-0.6-2.9-1.1-3.9-1.4
				c-1-0.3-2-0.4-3-0.4c-1.2,0-2.1,0.3-2.7,0.8c-0.6,0.6-0.9,1.3-0.9,2.2c0,0.6,0.1,1,0.4,1.4c0.3,0.4,0.7,0.8,1.2,1.2
				c0.6,0.4,1.9,1.1,4,2.1c2.8,1.3,4.6,2.6,5.7,4C514.9,145,515.4,146.6,515.4,148.5z"/>
		</g>
		<g>
			<path class="st0" d="M539.8,145.4v11.3h-6.3v-29.5h8.6c4,0,7,0.7,8.9,2.2c1.9,1.5,2.9,3.7,2.9,6.6c0,1.7-0.5,3.3-1.4,4.6
				c-1,1.4-2.3,2.4-4.1,3.2c4.4,6.6,7.3,10.9,8.7,12.8h-6.9l-7-11.3H539.8z M539.8,140.3h2c2,0,3.4-0.3,4.4-1
				c0.9-0.7,1.4-1.7,1.4-3.1c0-1.4-0.5-2.4-1.4-3c-1-0.6-2.5-0.9-4.5-0.9h-1.9V140.3z"/>
			<path class="st0" d="M577.8,156.7h-17v-29.5h17v5.1H567v6.5h10v5.1h-10v7.6h10.7V156.7z"/>
			<path class="st0" d="M601.3,148.5c0,2.7-1,4.8-2.9,6.3c-1.9,1.5-4.6,2.3-8,2.3c-3.1,0-5.9-0.6-8.3-1.8v-5.8
				c2,0.9,3.7,1.5,5.1,1.9c1.4,0.4,2.6,0.5,3.8,0.5c1.4,0,2.4-0.3,3.2-0.8c0.7-0.5,1.1-1.3,1.1-2.3c0-0.6-0.2-1.1-0.5-1.5
				c-0.3-0.5-0.8-0.9-1.4-1.3c-0.6-0.4-1.9-1.1-3.8-2c-1.8-0.8-3.2-1.7-4.1-2.4c-0.9-0.8-1.6-1.7-2.2-2.7c-0.5-1-0.8-2.2-0.8-3.6
				c0-2.6,0.9-4.7,2.7-6.2c1.8-1.5,4.2-2.2,7.3-2.2c1.5,0,3,0.2,4.4,0.5c1.4,0.4,2.8,0.9,4.4,1.5l-2,4.9c-1.6-0.6-2.9-1.1-3.9-1.4
				c-1-0.3-2-0.4-3-0.4c-1.2,0-2.1,0.3-2.7,0.8c-0.6,0.6-0.9,1.3-0.9,2.2c0,0.6,0.1,1,0.4,1.4c0.3,0.4,0.7,0.8,1.2,1.2
				c0.6,0.4,1.9,1.1,4,2.1c2.8,1.3,4.6,2.6,5.7,4C600.8,145,601.3,146.6,601.3,148.5z"/>
			<path class="st0" d="M633.4,141.9c0,4.9-1.2,8.6-3.6,11.3c-2.4,2.6-5.9,3.9-10.4,3.9c-4.5,0-8-1.3-10.4-3.9
				c-2.4-2.6-3.6-6.4-3.6-11.3c0-4.9,1.2-8.7,3.6-11.2c2.4-2.6,5.9-3.9,10.4-3.9c4.5,0,8,1.3,10.4,3.9
				C632.2,133.3,633.4,137,633.4,141.9z M611.9,141.9c0,3.3,0.6,5.8,1.9,7.4c1.3,1.7,3.1,2.5,5.6,2.5c5,0,7.5-3.3,7.5-9.9
				c0-6.6-2.5-10-7.4-10c-2.5,0-4.4,0.8-5.6,2.5C612.5,136.2,611.9,138.6,611.9,141.9z"/>
			<path class="st0" d="M663.5,127.2v19.1c0,2.2-0.5,4.1-1.5,5.7c-1,1.6-2.4,2.9-4.2,3.8c-1.8,0.9-4,1.3-6.5,1.3
				c-3.8,0-6.7-1-8.8-2.9c-2.1-1.9-3.1-4.6-3.1-8v-19h6.2v18.1c0,2.3,0.5,3.9,1.4,5c0.9,1.1,2.4,1.6,4.5,1.6c2,0,3.5-0.5,4.4-1.6
				c0.9-1.1,1.4-2.7,1.4-5v-18H663.5z"/>
			<path class="st0" d="M677,145.4v11.3h-6.3v-29.5h8.6c4,0,7,0.7,8.9,2.2c1.9,1.5,2.9,3.7,2.9,6.6c0,1.7-0.5,3.3-1.4,4.6
				c-1,1.4-2.3,2.4-4.1,3.2c4.4,6.6,7.3,10.9,8.7,12.8h-6.9l-7-11.3H677z M677,140.3h2c2,0,3.4-0.3,4.4-1c0.9-0.7,1.4-1.7,1.4-3.1
				c0-1.4-0.5-2.4-1.4-3c-1-0.6-2.5-0.9-4.5-0.9H677V140.3z"/>
			<path class="st0" d="M710.6,132c-2.4,0-4.2,0.9-5.5,2.7c-1.3,1.8-1.9,4.2-1.9,7.4c0,6.6,2.5,9.9,7.4,9.9c2.1,0,4.6-0.5,7.5-1.6
				v5.2c-2.4,1-5.1,1.5-8.1,1.5c-4.3,0-7.6-1.3-9.8-3.9c-2.3-2.6-3.4-6.3-3.4-11.2c0-3.1,0.6-5.8,1.7-8.1c1.1-2.3,2.7-4.1,4.8-5.3
				c2.1-1.2,4.5-1.8,7.4-1.8c2.9,0,5.7,0.7,8.6,2.1l-2,5.1c-1.1-0.5-2.2-1-3.3-1.4C712.7,132.2,711.6,132,710.6,132z"/>
			<path class="st0" d="M741.3,156.7h-17v-29.5h17v5.1h-10.7v6.5h10v5.1h-10v7.6h10.7V156.7z"/>
			<path class="st0" d="M764.9,148.5c0,2.7-1,4.8-2.9,6.3c-1.9,1.5-4.6,2.3-8,2.3c-3.1,0-5.9-0.6-8.3-1.8v-5.8
				c2,0.9,3.7,1.5,5.1,1.9c1.4,0.4,2.6,0.5,3.8,0.5c1.4,0,2.4-0.3,3.2-0.8c0.7-0.5,1.1-1.3,1.1-2.3c0-0.6-0.2-1.1-0.5-1.5
				c-0.3-0.5-0.8-0.9-1.4-1.3c-0.6-0.4-1.9-1.1-3.8-2c-1.8-0.8-3.2-1.7-4.1-2.4c-0.9-0.8-1.6-1.7-2.2-2.7c-0.5-1-0.8-2.2-0.8-3.6
				c0-2.6,0.9-4.7,2.7-6.2c1.8-1.5,4.2-2.2,7.3-2.2c1.5,0,3,0.2,4.4,0.5c1.4,0.4,2.8,0.9,4.4,1.5l-2,4.9c-1.6-0.6-2.9-1.1-3.9-1.4
				c-1-0.3-2-0.4-3-0.4c-1.2,0-2.1,0.3-2.7,0.8c-0.6,0.6-0.9,1.3-0.9,2.2c0,0.6,0.1,1,0.4,1.4c0.3,0.4,0.7,0.8,1.2,1.2
				c0.6,0.4,1.9,1.1,4,2.1c2.8,1.3,4.6,2.6,5.7,4C764.4,145,764.9,146.6,764.9,148.5z"/>
		</g>
		<g>
			<path class="st1" d="M321.9,42.2c1.5,0.1,1.1,0.2,2.9,0.2c1.8,0.1,4.5,0.1,8.1,0.1c2,0,5.2-0.1,9.7-0.2c4.5-0.1,8-0.2,10.5-0.2
				c13,0,23.2,3.4,30.6,10.3c7.4,6.8,11,16.3,11,28.4c0,12.2-3.5,21.7-10.5,28.3c-7,6.6-16.9,9.9-29.8,9.9c-2.2,0-5.5-0.1-10.1-0.2
				c-4.5-0.1-8-0.2-10.3-0.2c-2.5,0-4.9,0-7.2,0.1c-2.3,0.1-2.6,0.2-4.9,0.3V115c3.9,0,4.2-0.5,5.3-1.5c1-1,1.5-3.5,1.5-7.5V55.5
				c0-4-0.5-6.5-1.5-7.4c-1-1-1.4-1.5-5.3-1.6V42.2z M342.3,46.5v68.4h7.5c4.6,0,8.2-0.2,10.7-0.7c2.5-0.5,4.7-1.3,6.6-2.5
				c4.2-2.4,7.3-6.2,9.3-11.5c2.1-5.2,3.1-11.8,3.1-19.7c0-12.1-2.4-20.9-7.1-26.1c-4.7-5.3-12.7-7.9-23.9-7.9H342.3z"/>
			<path class="st1" d="M397,42.2c2.3,0.1,4.7,0.2,7,0.2c2.4,0.1,4.7,0.1,7.1,0.1c2,0,4.9-0.1,8.7-0.2c3.8-0.1,6.6-0.2,8.4-0.2
				c9.7,0,17,1.6,21.7,4.7c4.8,3.1,7.2,7.8,7.2,14.1c0,6.2-1.9,10.9-5.7,14c-3.8,3.2-9.7,5-17.7,5.5c7.3,0.5,12.4,2,15.5,4.4
				s5,6.6,5.8,12.5c0.2,1.5,0.4,3.7,0.5,6.4c0.3,6.2,1.9,9.3,4.8,9.3c1.5,0,2.6-0.5,3.5-1.5c0.9-1,1.5-2.5,1.9-4.7l3,0.5
				c-0.6,4.3-2.1,7.5-4.3,9.5c-2.2,2.1-5.3,3.1-9.3,3.1c-4.6,0-7.9-1.2-9.9-3.6c-2-2.4-3-6.3-3-11.7c0-0.7,0-1.6,0.1-2.9
				c0-1.3,0.1-2.2,0.1-2.9c0-6.5-1.2-10.9-3.7-13c-2.5-2.1-7-3.2-13.7-3.2h-5.5V106c0,4,0.5,6.5,1.5,7.5c1,1,3.4,1.5,7.3,1.5v4.2
				c-4.3-0.2-7.6-0.3-9.8-0.4c-2.2-0.1-4-0.1-5.4-0.1c-1.5,0-3.4,0-5.8,0.1c-2.3,0.1-5.8,0.2-10.4,0.4V115c3.9,0,6.3-0.5,7.4-1.5
				c1-1,1.5-3.5,1.5-7.5V55.5c0-4-0.5-6.5-1.5-7.4c-1-1-3.5-1.5-7.4-1.6V42.2z M419.5,78.3c0.8,0,1.7,0.1,2.6,0.1c0.9,0,1.9,0,3.2,0
				c6.4,0,10.9-1.3,13.8-3.9c2.8-2.6,4.2-6.8,4.2-12.6c0-5.3-1.4-9.3-4.2-11.8c-2.8-2.5-7.1-3.8-13.1-3.8c-1.2,0-3.2,0.1-5.9,0.2
				c-0.3,0-0.5,0-0.6,0.1L419.5,78.3z"/>
			<path class="st1" d="M530.9,41.9c0.1,2.5,0.2,5.3,0.4,8.5c0.2,3.1,0.4,7.1,0.8,12h-3.6c-0.7-6.3-2.2-10.5-4.7-12.7
				c-2.5-2.2-7.2-3.2-14.1-3.2h-16.3v29.8h7.5c4.8,0,7.8-0.7,9-2.1c1.2-1.4,2-4.7,2.3-9.8l3.5,0.1c0,1-0.1,2.5-0.2,4.5
				c-0.2,5-0.3,8.3-0.3,9.9c0,2.8,0.1,7.4,0.4,13.8c0,1,0.1,1.7,0.1,2.1h-3.5c-0.3-5.9-1.1-9.8-2.5-11.5c-1.4-1.7-4.3-2.6-8.9-2.6
				h-7.5v34.2h20.3c7.2,0,12.1-1.2,14.7-3.7c2.6-2.5,4.2-7.3,4.8-14.4h3.6c-0.4,4.2-0.7,8.2-0.9,11.9c-0.2,3.7-0.4,7.2-0.6,10.5
				h-64.3V115c3.9,0,6.3-0.5,7.4-1.5c1-1,1.5-3.5,1.5-7.5V55.5c0-4-0.5-6.5-1.5-7.4c-1-1-3.5-1.5-7.4-1.6v-4.2h13.7
				c9.7,0,18.4,0,26.1-0.1C518.4,42,525.1,42,530.9,41.9z"/>
			<path class="st1" d="M572.7,41.2h5.7l24.8,68.1c0.8,2.3,1.8,3.8,2.9,4.6c1.1,0.7,2.9,1.1,5.3,1.1v4.2c-4.5-0.2-7.7-0.3-9.8-0.4
				c-2-0.1-3.7-0.1-4.9-0.1c-1.5,0-3.4,0-5.8,0.1c-2.4,0.1-5.8,0.2-10.2,0.4V115c2.7-0.1,4.5-0.4,5.7-1.1c1.1-0.6,1.7-1.7,1.7-3.1
				c0-0.5,0-0.9-0.1-1.4c-0.1-0.4-0.1-0.8-0.2-1.1l-5.7-16.9h-22.8l-4.4,12.4c-0.1,0.2-0.2,0.5-0.3,0.8c-1,3-1.6,5-1.6,6.2
				c0,1.5,0.4,2.5,1.2,3.1c0.8,0.6,2.5,1,5,1.1v4.2c-1.9-0.1-3.7-0.2-5.4-0.3c-1.7-0.1-3.3-0.1-4.7-0.1c-1.2,0-2.7,0-4.3,0.1
				c-1.7,0.1-3.4,0.2-5.4,0.3V115c2.4,0,4.1-0.4,5.2-1.1c1.1-0.7,2.1-2.4,3-4.9L572.7,41.2z M570.8,58.5l-10.3,28.6h19.9L570.8,58.5
				z"/>
			<path class="st1" d="M615.2,42.2c2.8,0.2,5.1,0.3,7,0.4c1.9,0.1,3.5,0.1,4.9,0.1c1.3,0,2.9,0,4.8-0.1c2-0.1,4.6-0.2,8.1-0.4
				l20.8,58.8l20.9-58.8c3.2,0.2,5.7,0.3,7.4,0.4c1.7,0.1,3.1,0.1,4.2,0.1c1.5,0,3.2,0,5.2-0.1c2-0.1,4.5-0.2,7.5-0.4v4.2
				c-3.8,0.1-6.2,0.6-7.2,1.5c-1,0.9-1.6,3.3-1.6,7.1V106c0,4.1,0.5,6.6,1.5,7.6c1,1,3.4,1.4,7.3,1.4v4.2c-4.2-0.2-7.4-0.3-9.6-0.4
				c-2.2-0.1-4.1-0.1-5.6-0.1c-1.5,0-3.4,0-5.7,0.1c-2.3,0.1-5.7,0.2-10,0.4V115c3.8,0,6.2-0.5,7.2-1.5c1-1,1.5-3.5,1.5-7.5
				l0.1-56.5h-0.5l-24.7,69.1l-5.1-0.5l-24.2-68.6h-0.7l-0.5,54v1.3c0,4.3,0.6,7.1,1.7,8.3c1.1,1.2,3.5,1.9,7.1,1.9v4.2
				c-2.1-0.1-4.1-0.2-6-0.3c-1.9-0.1-3.6-0.1-5.1-0.1c-1.7,0-3.6,0-5.6,0.1c-2,0.1-4.2,0.2-6.4,0.3l0.1-4.2c4.2-0.1,6.8-0.7,7.9-1.7
				c1.1-1,1.7-4.1,1.8-9.4l0.6-51.5V52c0-2.3-0.5-3.7-1.5-4.4c-1-0.7-3.5-1-7.4-1.1V42.2z"/>
			<path class="st1" d="M757.7,47.7l0.8-4.2h3.2c-0.1,2.2-0.1,4.2-0.2,5.9c-0.1,1.7-0.1,3.1-0.1,4.3c0,1.7,0,3.6,0.1,5.5
				c0.1,2,0.1,4.1,0.2,6.3h-3.4c-0.6-6.4-2.6-11.3-5.9-14.8c-3.3-3.4-7.8-5.2-13.3-5.2c-4.3,0-7.8,1.2-10.5,3.7
				c-2.7,2.5-4,5.7-4,9.7c0,3.4,1,6.1,2.9,8.1c1.9,2.1,6.2,4.3,12.9,6.8c10.2,3.8,16.8,7.4,19.9,10.7c3.1,3.3,4.7,7.6,4.7,13
				c0,6.8-2.4,12.2-7.3,16.3c-4.9,4.1-11.4,6.2-19.5,6.2c-4.1,0-8-0.7-11.5-2c-3.6-1.3-6.9-3.4-10.1-6.1l-1.3,5.3h-3.1
				c0-1.2,0-2.9,0.1-5.1c0.1-4.2,0.2-6.8,0.2-8.1c0-1,0-3.3-0.1-6.9c-0.1-2.2-0.1-3.9-0.1-5.1h3.7c0.4,7.4,2.5,13.2,6.3,17.4
				c3.8,4.2,8.8,6.3,15,6.3c4.6,0,8.2-1.2,10.9-3.7c2.7-2.4,4-5.8,4-10c0-3.3-1-6-3-8.2c-2-2.1-5.7-4.2-11.1-6.2
				c-0.7-0.2-1.7-0.6-3-1c-6.9-2.4-11.8-4.7-14.8-6.9c-2.8-2.1-4.9-4.4-6.2-7c-1.3-2.6-1.9-5.7-1.9-9.3c0-6.8,2.3-12.3,6.9-16.3
				s10.7-6.1,18.5-6.1c3.8,0,7.5,0.5,10.9,1.6C751.6,43.9,754.8,45.5,757.7,47.7z"/>
		</g>
	</g>
</g>
</svg>
